<?xml version="1.0" encoding="UTF-8" standalone="no"?>
<!-- Created with Inkscape (http://www.inkscape.org/) -->

<svg
   xmlns:dc="http://purl.org/dc/elements/1.1/"
   xmlns:cc="http://creativecommons.org/ns#"
   xmlns:rdf="http://www.w3.org/1999/02/22-rdf-syntax-ns#"
   xmlns:svg="http://www.w3.org/2000/svg"
   xmlns="http://www.w3.org/2000/svg"
   xmlns:sodipodi="http://sodipodi.sourceforge.net/DTD/sodipodi-0.dtd"
   xmlns:inkscape="http://www.inkscape.org/namespaces/inkscape"
   width="210mm"
   height="297mm"
   viewBox="0 0 210 297"
   version="1.1"
   id="svg8"
   inkscape:version="0.92.2 (5c3e80d, 2017-08-06)"
   sodipodi:docname="Mountain Logo.svg">
  <defs
     id="defs2" />
  <sodipodi:namedview
     id="base"
     pagecolor="#ffffff"
     bordercolor="#666666"
     borderopacity="1.0"
     inkscape:pageopacity="0.0"
     inkscape:pageshadow="2"
     inkscape:zoom="5.6"
     inkscape:cx="241.7563"
     inkscape:cy="924.54347"
     inkscape:document-units="mm"
     inkscape:current-layer="layer1"
     showgrid="false"
     inkscape:snap-bbox="true"
     inkscape:snap-bbox-edge-midpoints="true"
     showguides="false"
     inkscape:window-width="825"
     inkscape:window-height="405"
     inkscape:window-x="2314"
     inkscape:window-y="702"
     inkscape:window-maximized="0" />
  <metadata
     id="metadata5">
    <rdf:RDF>
      <cc:Work
         rdf:about="">
        <dc:format>image/svg+xml</dc:format>
        <dc:type
           rdf:resource="http://purl.org/dc/dcmitype/StillImage" />
        <dc:title></dc:title>
      </cc:Work>
    </rdf:RDF>
  </metadata>
  <g
     inkscape:label="Layer 1"
     inkscape:groupmode="layer"
     id="layer1">
    <path
       style="fill:none;stroke:#000000;stroke-width:0.26458332px;stroke-linecap:butt;stroke-linejoin:miter;stroke-opacity:1"
       d="m 12.473214,66.056546 c 1.918565,0.07444 2.457849,-1.533916 3.822616,-2.222342 1.420901,-0.942912 2.683129,-2.050542 4.294787,-2.538938 1.70938,0.19167 2.406194,-1.557826 3.793675,-2.226527 0.957633,-0.556262 1.221136,-1.497056 2.452017,-1.705644 0.33832,-1.702909 2.414069,-2.193771 3.610567,-3.280661 0.461895,-1.373162 2.752468,-1.479832 3.193005,-3.144936 0.688924,-1.014821 1.30097,0.09149 2.175971,-1.183417 0.982435,-1.188666 2.512431,-1.597803 3.67119,-2.530435 0.896136,0.152661 0.994197,-0.246155 1.090374,-0.901096 1.580858,-0.170812 2.972941,-0.531347 4.293139,-1.187998 0.620049,-1.10303 1.426903,-0.477476 2.544468,0.386804 0.558206,1.083777 0.315626,0.609789 1.771995,1.04866 -0.109519,0.806777 1.126453,1.214619 0.705839,2.477603 0.778764,1.273505 0.982158,2.531762 2.29546,3.485539 0.151452,1.064618 1.855876,2.880226 3.185195,2.373091 0.114367,0.38163 2.098243,1.428763 2.464129,1.712265"
       id="path3749"
       inkscape:connector-curvature="0"
       sodipodi:nodetypes="ccccccccccccccccc" />
    <path
       style="fill:none;stroke:#000000;stroke-width:0.26458332px;stroke-linecap:butt;stroke-linejoin:miter;stroke-opacity:1"
       d="m 37.041666,65.300595 c 2.063323,-0.547227 4.785383,1.127065 6.278331,-0.909761 1.270734,-0.849173 2.645552,-1.585562 3.954443,-2.19699 1.210403,-0.366153 3.520286,-1.362116 4.886274,-2.562892 1.374784,-0.427893 3.6192,-2.036312 5.676927,-3.012438 1.603687,-1.875963 3.677074,-1.681511 5.284382,-2.657204 0.289242,-1.601166 1.624357,-0.163974 2.316789,-1.942244 1.239134,-1.477471 4.088334,-1.947649 3.659959,-4.176247 0.918883,-1.010329 3.107522,-0.576622 4.224481,-1.860707 2.588246,-0.662271 3.75423,1.766804 4.539841,3.443483 1.473628,1.211141 2.436602,2.984405 3.894542,4.408067 1.20322,1.131396 1.757841,2.356099 3.416943,2.173558 0.95725,1.487769 2.737886,1.799698 4.027803,2.867778 1.435004,0.522739 2.229076,1.77422 3.590772,2.645835 0.730357,0.731194 0.795531,0.20254 1.040509,0.377822 2.140839,-0.62873 2.823419,1.04904 3.603308,2.296817 0.758433,-0.04642 0.01356,1.910292 1.22315,1.84671 1.42193,1.033454 1.86709,2.3493 3.39345,3.416149"
       id="path3753"
       inkscape:connector-curvature="0" />
    <path
       style="fill:none;stroke:#000000;stroke-width:0.26458332px;stroke-linecap:butt;stroke-linejoin:miter;stroke-opacity:1"
       d="m 90.336308,59.630952 c 2.39091,-0.717 4.831215,-1.298139 7.075655,-2.425699 1.522506,-0.221035 2.301962,-1.62865 3.859117,-2.02206 1.55007,-0.278108 3.82571,0.600537 5.04957,-0.397645 1.03815,-1.083727 3.32352,-2.513642 3.32352,-2.513642 l 1.78036,-1.127238 1.49585,-1.62458 2.07887,-0.472468 v 0 l 2.97601,-2.53172 c 0,0 1.60115,-0.975385 3.07666,-1.041709 1.64311,-0.07386 2.12201,2.938305 2.92176,3.243949 0.005,-0.763171 0.79367,0.963973 0.14253,0.794818 0.62223,0.727281 1.3231,0.639317 0.99391,1.802517 0.41613,0.853682 1.13172,1.986263 2.13678,2.022361 0.22545,0.975423 0.83859,2.552902 1.55887,2.866271 -0.0799,1.237078 0.81147,2.344685 1.6239,3.232584 -0.27283,1.424425 2.10365,1.221542 1.86199,2.840093 0.69519,1.053924 1.0097,2.363097 0.75596,3.779761"
       id="path3755"
       inkscape:connector-curvature="0"
       sodipodi:nodetypes="ccccccccccscccccccc" />
    <path
       style="fill:none;stroke:#000000;stroke-width:0.26458332px;stroke-linecap:butt;stroke-linejoin:miter;stroke-opacity:1"
       d="m 127.75595,55.095237 c 1.026,-0.410803 2.26791,0.473724 3.20935,-0.290941 0.58363,-0.04194 1.4422,-0.593736 1.4422,-0.593736 l 0.63424,-0.360085 c 0,0 2.00672,-1.426502 1.97052,-1.906282 0.66743,-0.929451 2.2542,-1.050868 2.90376,-0.03497 0.54332,0.733412 0.62843,1.700263 1.17896,2.430062 0.79198,-0.01153 0.81841,1.279453 1.43068,1.740477 -0.009,0.987082 1.30408,1.26558 1.472,2.248064 0.28821,0.239711 0.73404,0.181758 0.76199,0.751003 0.1465,0.349373 0.70373,-0.01158 0.49306,0.552122 0.46251,0.60739 0.80341,1.735065 1.51191,1.511903 0.5568,0.368553 1.12978,0.970878 1.21805,1.536963 0.50876,-0.207196 0.12967,0.655718 0.7641,0.589545 0.7092,0.312233 1.07004,1.338099 1.82728,1.356076 -0.16015,0.561862 0.56106,0.942072 0.72628,1.431107"
       id="path3759"
       inkscape:connector-curvature="0"
       sodipodi:nodetypes="cccccccccccccccc" />
    <path
       style="stroke-width:0.26458332"
       d="m 71.815534,46.914449 0.589354,-0.318126 0.918364,-0.614211 1.603446,0.02362 1.005521,0.583596 0.797293,0.850447 0.561058,1.039434 0.572523,0.946382 1.222529,1.171093 1.656842,2.139946 1.255938,1.304728 1.723659,1.688929 1.452517,0.276933 1.326122,1.278014 2.701681,1.589764 1.133927,0.755954 2.456845,1.889881 1.040509,0.377822 1.00024,-0.14657 1.000241,0.373149 0.858499,0.940112 0.41913,0.601193 0.325198,0.528933 0.346019,0.339365 0.05164,0.93528 1.511905,1.275669 1.013506,1.040569 1.69354,1.671976 c -5.043997,-1.251226 -1.85445,-2.773284 -8.730877,-3.974991 -0.0036,-0.05383 -1.64321,-1.010976 -2.02947,-1.324377 -0.386261,-0.313401 -1.692553,-0.07755 -2.352488,-0.580212 -0.659935,-0.50266 -1.279618,0.07252 -2.104259,-0.549091 -0.824641,-0.621609 -0.128769,-1.494823 -1.181608,-1.835156 -3.242729,-1.048223 -3.809854,-1.018447 -4.614014,-0.341583 -5.740839,4.832083 -2.356392,0.621152 -4.155269,-1.541833 -0.554477,-0.666709 -0.654592,-1.616568 -0.670397,-3.522763 -0.0046,-0.557232 0.792675,-1.823784 0.77903,-1.985467 -0.02583,-0.306036 -1.268801,-0.559184 -1.436366,-0.741033 -0.105317,-0.316552 1.013925,-1.070165 -0.100976,-1.91823 -0.218872,-0.08647 0.625574,-0.661216 0.498792,-1.512091 -0.03429,-0.230112 -0.37072,-1.095091 -1.247898,-1.826871 -0.407157,-0.339668 -1.48169,-0.239187 -1.613794,-0.470248 -0.132104,-0.231062 -1.21893,-0.06397 -1.27845,-0.419936 z"
       id="rect3772"
       inkscape:connector-curvature="0"
       sodipodi:nodetypes="cccccccccccccccccccccccccccccssssssssccssscc" />
  </g>
</svg>
